<svg width="122" height="40" viewBox="0 0 122 40" fill="none" xmlns="http://www.w3.org/2000/svg">
<path d="M114.155 14.035L106.966 22.6101V25.999L114.155 17.4239L121.343 26.0002V22.6112L114.155 14.035Z" fill="white"/>
<path d="M114.155 16.7238L107.416 24.7613V22.7737L114.155 14.7362L120.893 22.7749V24.7613L114.155 16.7238Z" fill="white"/>
<path d="M90.7608 14.5224L90.2384 14V25.964L92.6347 23.5677V19.7852L95.7334 22.8827L97.4273 24.5778L102.219 19.7864V23.5666L104.615 25.9628V14.0012L97.4273 21.1889L90.7608 14.5224Z" fill="white"/>
<path d="M90.6877 15.0866L97.4273 21.8261L104.166 15.0877V24.8761L102.669 23.3795V18.6996L97.4273 23.9415L92.1843 18.6973V23.3807L90.6877 24.8772V15.0866Z" fill="white"/>
<path d="M63.9826 16.3985L66.3789 14.0022H54.3963H53.7113L52 15.7123V16.3985V18.7948V21.1911H54.3963H63.9826V23.5699H54.3963L52 25.9662H63.9826H66.3789V23.5699V21.1911V20.5037L64.6687 18.7948H63.9826H54.3963V16.3985H63.9826Z" fill="white"/>
<path d="M53.0867 25.516L54.5832 24.0195H64.433V20.7409H52.4504V15.8995L53.897 14.4518L65.2922 14.4529L63.7956 15.9483H53.947V19.2455H64.4818L65.9284 20.6909V25.516H53.0867Z" fill="white"/>
<path d="M68.7288 25.964H71.125V14L68.7288 16.3986V25.964Z" fill="white"/>
<path d="M69.1793 25.5134V16.5842L70.6758 15.0877V25.5134H69.1793Z" fill="white"/>
<path d="M75.8724 23.5516V16.4127H85.4912L87.8875 14.0164H75.8724H75.1862L73.4761 15.7277V16.4127V23.5516V24.2366L75.1862 25.9479H75.8724H85.4912H86.1773L87.8875 24.2366V23.5516V21.1728V18.7765H85.4912L82.9765 21.1728H85.4912V23.5516H75.8724Z" fill="white"/>
<path d="M75.373 25.4973L73.9253 24.0496V15.9133L75.373 14.4667H86.8007L85.3053 15.9633H75.4218V24.0008H85.9416V20.7222H84.1014L85.671 19.2268H87.4369V24.0496L85.9903 25.4973H75.373Z" fill="white"/>
<path d="M114.155 14.035V14.7362L120.893 22.7749L121.343 22.6112L114.155 14.035Z" fill="white"/>
<path d="M114.155 14.035V14.7362L107.416 22.7738L106.966 22.6101L114.155 14.035Z" fill="white"/>
<path d="M106.966 22.61L107.416 22.7737V24.7613L106.966 25.9989V22.61Z" fill="white"/>
<path d="M114.155 16.7238V17.4239L121.343 26.0001L120.893 24.7613L114.155 16.7238Z" fill="white"/>
<path d="M121.342 22.6111L120.893 22.7748V24.7612L121.342 26V22.6111Z" fill="white"/>
<path d="M107.416 24.7613L106.966 25.9989L114.155 17.4239V16.7238L107.416 24.7613Z" fill="white"/>
<path d="M104.615 14.0011L104.166 15.0878V24.8761L104.615 25.9628V14.0011Z" fill="white"/>
<path d="M97.4273 21.8262V21.1889L90.2384 14L90.6877 15.0867L97.4273 21.8262Z" fill="white"/>
<path d="M97.4272 23.9416V24.5778L102.219 19.7864L102.669 18.6997L97.4272 23.9416Z" fill="white"/>
<path d="M102.219 23.5666L102.669 23.3797L104.166 24.8762L104.615 25.9629L102.219 23.5666Z" fill="white"/>
<path d="M97.4272 21.8262L104.166 15.0878L104.615 14.0011L97.4272 21.1888V21.8262Z" fill="white"/>
<path d="M97.4272 23.9417V24.5779L92.6347 19.7854L92.1842 18.6975L97.4272 23.9417Z" fill="white"/>
<path d="M102.669 23.3797V18.6997L102.219 19.7864V23.5666L102.669 23.3797Z" fill="white"/>
<path d="M90.6877 15.0867V24.8773L90.2384 25.964V14L90.6877 15.0867Z" fill="white"/>
<path d="M92.1842 18.6975V23.3809L92.6347 23.5679V19.7854L92.1842 18.6975Z" fill="white"/>
<path d="M90.6877 24.8773L92.1842 23.3808L92.6347 23.5677L90.2384 25.964L90.6877 24.8773Z" fill="white"/>
<path d="M87.8873 14.0164L86.8007 14.4669L85.3053 15.9634L85.4911 16.4127L87.8873 14.0164Z" fill="white"/>
<path d="M85.4911 18.7763L85.671 19.2267H87.4369L87.8874 18.7763H85.4911Z" fill="white"/>
<path d="M84.1014 20.7223L82.9764 21.1728H85.4911L85.9416 20.7223H84.1014Z" fill="white"/>
<path d="M87.437 19.2267V24.0495L87.8875 24.2364V18.7763L87.437 19.2267Z" fill="white"/>
<path d="M85.6711 19.2267L84.1014 20.7221L82.9764 21.1726L85.4911 18.7763L85.6711 19.2267Z" fill="white"/>
<path d="M85.4911 21.1728L85.9416 20.7223V24.0009L85.4911 23.5516V21.1728Z" fill="white"/>
<path d="M87.4368 24.0495L85.9902 25.4973L86.1772 25.9477L87.8873 24.2364L87.4368 24.0495Z" fill="white"/>
<path d="M85.3054 15.9632H75.4219L75.8723 16.4125H85.4912L85.3054 15.9632Z" fill="white"/>
<path d="M86.8007 14.4669H75.3731L75.1862 14.0164H87.8874L86.8007 14.4669Z" fill="white"/>
<path d="M75.4219 15.9632V24.0007L75.8723 23.5514V16.4125L75.4219 15.9632Z" fill="white"/>
<path d="M75.3731 14.4669L73.9254 15.9135L73.4761 15.7277L75.1862 14.0164L75.3731 14.4669Z" fill="white"/>
<path d="M75.4219 24.0008H85.9416L85.4912 23.5515H75.8723L75.4219 24.0008Z" fill="white"/>
<path d="M75.3731 25.4975L75.1862 25.9479H86.1773L85.9903 25.4975H75.3731Z" fill="white"/>
<path d="M73.9254 15.9134V24.0496L73.4761 24.2365V15.7276L73.9254 15.9134Z" fill="white"/>
<path d="M75.3731 25.4973L75.1862 25.9477L73.4761 24.2364L73.9254 24.0495L75.3731 25.4973Z" fill="white"/>
<path d="M71.125 14L70.6757 15.0878V25.5135L71.125 25.964V14Z" fill="white"/>
<path d="M69.1792 16.5843L68.7288 16.3985V25.9639L69.1792 25.5135V16.5843Z" fill="white"/>
<path d="M70.6757 15.0878L69.1792 16.5844L68.7288 16.3986L71.125 14L70.6757 15.0878Z" fill="white"/>
<path d="M70.6757 25.5135H69.1792L68.7288 25.964H71.125L70.6757 25.5135Z" fill="white"/>
<path d="M64.6687 18.7949L64.4818 19.2453L65.9284 20.6908L66.3789 20.5038L64.6687 18.7949Z" fill="white"/>
<path d="M66.3789 25.9665L65.9284 25.5161H53.0867L52 25.9665H66.3789Z" fill="white"/>
<path d="M63.9825 16.3987L63.7956 15.9482H53.9469L54.3962 16.3987H63.9825Z" fill="white"/>
<path d="M66.379 14.0022L65.2923 14.4527L53.8972 14.4515L53.7114 14.0022H66.379Z" fill="white"/>
<path d="M63.7958 15.948L63.9827 16.3985L66.379 14.0022L65.2923 14.4527L63.7958 15.948Z" fill="white"/>
<path d="M53.8971 14.4515L52.4505 15.8993L52 15.7123L53.7113 14.0022L53.8971 14.4515Z" fill="white"/>
<path d="M53.9469 15.9482L54.3962 16.3987V18.795L53.9469 19.2454V15.9482Z" fill="white"/>
<path d="M64.6687 18.7949H54.3962L53.9469 19.2453H64.4817L64.6687 18.7949Z" fill="white"/>
<path d="M65.9285 20.6908V25.5159L66.3789 25.9663V20.5039L65.9285 20.6908Z" fill="white"/>
<path d="M64.4331 24.0193L63.9827 23.57H54.3964L54.5833 24.0193H64.4331Z" fill="white"/>
<path d="M53.0867 25.5159L54.5832 24.0193L54.3963 23.57L52 25.9663L53.0867 25.5159Z" fill="white"/>
<path d="M63.9825 21.1913L64.433 20.7409V24.0195L63.9825 23.5702V21.1913Z" fill="white"/>
<path d="M52.4505 20.7409L52 21.1913H63.9826L64.4331 20.7409H52.4505Z" fill="white"/>
<path d="M52.4505 15.8992L52 15.7123V21.191L52.4505 20.7405V15.8992Z" fill="white"/>
<rect x="0.5" y="0.5" width="39" height="39" rx="7.5" fill="url(#paint0_radial_369_2203)" stroke="url(#paint1_linear_369_2203)"/>
<path d="M19.233 19.9996L17.6161 21.6155L11.6128 27.6189H8.92004L16.5402 19.9996L8.92212 12.3814H11.6149L19.233 19.9996Z" fill="#FEFDFF"/>
<path d="M16.4357 27.6189L24.0548 19.9996L16.4367 12.3814H30.5939L28.6899 14.2855H21.0335L26.7476 19.9996L25.1317 21.6155L21.0324 25.7148H28.692L30.596 27.6189H16.4357Z" fill="#FEFDFF"/>
<path d="M31.5153 12L30.5938 12.3814L28.6898 14.2855L28.8484 14.6669L31.5153 12Z" fill="#FEFDFF"/>
<path d="M15.5166 12L16.437 12.3814H30.5942L31.5156 12H15.5166Z" fill="#FEFDFF"/>
<path d="M15.5166 12L16.437 12.3814L24.0551 19.9996H23.5161L15.5166 12Z" fill="#FEFDFF"/>
<path d="M27.2874 19.9995H26.7474L21.0333 14.2854L21.9548 14.6668L27.2874 19.9995Z" fill="#FEFDFF"/>
<path d="M28.8483 14.6668L28.6898 14.2854H21.0333L21.9548 14.6668H28.8483Z" fill="#FEFDFF"/>
<path d="M27.288 19.9991H26.748L21.0328 25.7143L21.9532 25.3328L27.288 19.9991Z" fill="#FEFDFF"/>
<path d="M21.9532 25.3331L21.0328 25.7145H28.6924L28.8499 25.3331H21.9532Z" fill="#FEFDFF"/>
<path d="M28.8497 25.3331L28.6921 25.7145L30.5961 27.6186L31.5165 28L28.8497 25.3331Z" fill="#FEFDFF"/>
<path d="M31.5165 27.9999L30.5961 27.6185H16.4358L15.5154 27.9999H31.5165Z" fill="#FEFDFF"/>
<path d="M15.5154 27.9997L16.4358 27.6183L24.0549 19.9991H23.5159L15.5154 27.9997Z" fill="#FEFDFF"/>
<path d="M19.7722 19.9991H19.2332L11.613 27.6183L11.7706 27.9997L19.7722 19.9991Z" fill="#FEFDFF"/>
<path d="M16.5406 19.9991H16.0006L8 27.9997L8.92039 27.6183L16.5406 19.9991Z" fill="#FEFDFF"/>
<path d="M11.6132 27.6185L11.7707 27.9999H8L8.92039 27.6185H11.6132Z" fill="#FEFDFF"/>
<path d="M11.7729 12L11.6154 12.3814L19.2334 19.9996H19.7724L11.7729 12Z" fill="#FEFDFF"/>
<path d="M11.7727 12H8.00098L8.9224 12.3814H11.6152L11.7727 12Z" fill="#FEFDFF"/>
<path d="M8.9224 12.3814L8.00098 12L16.0005 19.9996H16.5405L8.9224 12.3814Z" fill="#FEFDFF"/>
<defs>
<radialGradient id="paint0_radial_369_2203" cx="0" cy="0" r="1" gradientUnits="userSpaceOnUse" gradientTransform="translate(20 40) rotate(-90) scale(40 32.4332)">
<stop stop-color="#778CE8"/>
<stop offset="1" stop-color="#1C39BA"/>
</radialGradient>
<linearGradient id="paint1_linear_369_2203" x1="-5.57297e-08" y1="40" x2="41.7787" y2="38.0469" gradientUnits="userSpaceOnUse">
<stop stop-color="white" stop-opacity="0"/>
<stop offset="1" stop-color="white" stop-opacity="0.4"/>
</linearGradient>
</defs>
</svg>
