<svg width="150" height="88" viewBox="0 0 150 88" fill="none" xmlns="http://www.w3.org/2000/svg">
<path d="M142.155 38.035L134.966 46.6101V49.999L142.155 41.4239L149.342 50.0002V46.6112L142.155 38.035Z" fill="white"/>
<path d="M142.155 40.7238L135.416 48.7613V46.7737L142.155 38.7362L148.893 46.7749V48.7613L142.155 40.7238Z" fill="white"/>
<path d="M118.761 38.5224L118.238 38V49.964L120.635 47.5677V43.7852L123.733 46.8827L125.427 48.5778L130.219 43.7864V47.5666L132.615 49.9628V38.0012L125.427 45.1889L118.761 38.5224Z" fill="white"/>
<path d="M118.688 39.0866L125.427 45.8261L132.166 39.0878V48.8761L130.669 47.3795V42.6996L125.427 47.9415L120.184 42.6973V47.3807L118.688 48.8772V39.0866Z" fill="white"/>
<path d="M91.9826 40.3985L94.3789 38.0022H82.3963H81.7113L80 39.7123V40.3985V42.7948V45.191H82.3963H91.9826V47.5699H82.3963L80 49.9662H91.9826H94.3789V47.5699V45.191V44.5037L92.6687 42.7948H91.9826H82.3963V40.3985H91.9826Z" fill="white"/>
<path d="M81.0867 49.516L82.5832 48.0195H92.433V44.7409H80.4504V39.8995L81.897 38.4518L93.2922 38.4529L91.7956 39.9483H81.947V43.2455H92.4818L93.9284 44.6909V49.516H81.0867Z" fill="white"/>
<path d="M96.7288 49.964H99.125V38L96.7288 40.3986V49.964Z" fill="white"/>
<path d="M97.1793 49.5134V40.5842L98.6758 39.0877V49.5134H97.1793Z" fill="white"/>
<path d="M103.872 47.5516V40.4127H113.491L115.887 38.0164H103.872H103.186L101.476 39.7277V40.4127V47.5516V48.2366L103.186 49.9479H103.872H113.491H114.177L115.887 48.2366V47.5516V45.1728V42.7765H113.491L110.976 45.1728H113.491V47.5516H103.872Z" fill="white"/>
<path d="M103.373 49.4973L101.925 48.0495V39.9133L103.373 38.4667H114.801L113.305 39.9632H103.422V48.0008H113.942V44.7221H112.101L113.671 43.2268H115.437V48.0495L113.99 49.4973H103.373Z" fill="white"/>
<path d="M142.155 38.035V38.7362L148.893 46.7749L149.343 46.6112L142.155 38.035Z" fill="white"/>
<path d="M142.155 38.035V38.7362L135.416 46.7738L134.966 46.6101L142.155 38.035Z" fill="white"/>
<path d="M134.966 46.61L135.416 46.7737V48.7613L134.966 49.9989V46.61Z" fill="white"/>
<path d="M142.155 40.7238V41.4238L149.343 50.0001L148.893 48.7613L142.155 40.7238Z" fill="white"/>
<path d="M149.342 46.6111L148.893 46.7748V48.7612L149.342 50V46.6111Z" fill="white"/>
<path d="M135.416 48.7613L134.966 49.9989L142.155 41.4238V40.7238L135.416 48.7613Z" fill="white"/>
<path d="M132.615 38.0011L132.166 39.0878V48.8761L132.615 49.9628V38.0011Z" fill="white"/>
<path d="M125.427 45.8262V45.1889L118.238 38L118.688 39.0867L125.427 45.8262Z" fill="white"/>
<path d="M125.427 47.9416V48.5778L130.219 43.7864L130.669 42.6997L125.427 47.9416Z" fill="white"/>
<path d="M130.219 47.5666L130.669 47.3797L132.166 48.8762L132.615 49.9629L130.219 47.5666Z" fill="white"/>
<path d="M125.427 45.8262L132.166 39.0878L132.615 38.0011L125.427 45.1888V45.8262Z" fill="white"/>
<path d="M125.427 47.9417V48.5779L120.635 43.7854L120.184 42.6975L125.427 47.9417Z" fill="white"/>
<path d="M130.669 47.3796V42.6997L130.219 43.7864V47.5666L130.669 47.3796Z" fill="white"/>
<path d="M118.688 39.0867V48.8773L118.238 49.964V38L118.688 39.0867Z" fill="white"/>
<path d="M120.184 42.6975V47.3809L120.635 47.5679V43.7854L120.184 42.6975Z" fill="white"/>
<path d="M118.688 48.8773L120.184 47.3808L120.635 47.5677L118.238 49.964L118.688 48.8773Z" fill="white"/>
<path d="M115.887 38.0164L114.801 38.4669L113.305 39.9634L113.491 40.4127L115.887 38.0164Z" fill="white"/>
<path d="M113.491 42.7763L113.671 43.2267H115.437L115.887 42.7763H113.491Z" fill="white"/>
<path d="M112.101 44.7223L110.976 45.1728H113.491L113.942 44.7223H112.101Z" fill="white"/>
<path d="M115.437 43.2267V48.0495L115.887 48.2364V42.7763L115.437 43.2267Z" fill="white"/>
<path d="M113.671 43.2267L112.101 44.7221L110.976 45.1726L113.491 42.7763L113.671 43.2267Z" fill="white"/>
<path d="M113.491 45.1728L113.942 44.7223V48.0009L113.491 47.5516V45.1728Z" fill="white"/>
<path d="M115.437 48.0495L113.99 49.4973L114.177 49.9477L115.887 48.2364L115.437 48.0495Z" fill="white"/>
<path d="M113.305 39.9632H103.422L103.872 40.4125H113.491L113.305 39.9632Z" fill="white"/>
<path d="M114.801 38.4669H103.373L103.186 38.0164H115.887L114.801 38.4669Z" fill="white"/>
<path d="M103.422 39.9632V48.0007L103.872 47.5514V40.4125L103.422 39.9632Z" fill="white"/>
<path d="M103.373 38.4669L101.925 39.9135L101.476 39.7277L103.186 38.0164L103.373 38.4669Z" fill="white"/>
<path d="M103.422 48.0007H113.942L113.491 47.5514H103.872L103.422 48.0007Z" fill="white"/>
<path d="M103.373 49.4975L103.186 49.9479H114.177L113.99 49.4975H103.373Z" fill="white"/>
<path d="M101.925 39.9134V48.0496L101.476 48.2365V39.7276L101.925 39.9134Z" fill="white"/>
<path d="M103.373 49.4973L103.186 49.9477L101.476 48.2364L101.925 48.0495L103.373 49.4973Z" fill="white"/>
<path d="M99.125 38L98.6757 39.0878V49.5135L99.125 49.964V38Z" fill="white"/>
<path d="M97.1792 40.5843L96.7288 40.3985V49.9639L97.1792 49.5135V40.5843Z" fill="white"/>
<path d="M98.6757 39.0878L97.1792 40.5844L96.7288 40.3986L99.125 38L98.6757 39.0878Z" fill="white"/>
<path d="M98.6757 49.5135H97.1792L96.7288 49.964H99.125L98.6757 49.5135Z" fill="white"/>
<path d="M92.6687 42.7949L92.4818 43.2453L93.9284 44.6908L94.3789 44.5038L92.6687 42.7949Z" fill="white"/>
<path d="M94.3789 49.9665L93.9284 49.5161H81.0867L80 49.9665H94.3789Z" fill="white"/>
<path d="M91.9825 40.3987L91.7956 39.9482H81.9469L82.3962 40.3987H91.9825Z" fill="white"/>
<path d="M94.379 38.0022L93.2923 38.4527L81.8972 38.4515L81.7114 38.0022H94.379Z" fill="white"/>
<path d="M91.7958 39.948L91.9827 40.3985L94.379 38.0022L93.2923 38.4527L91.7958 39.948Z" fill="white"/>
<path d="M81.8971 38.4515L80.4505 39.8992L80 39.7123L81.7113 38.0022L81.8971 38.4515Z" fill="white"/>
<path d="M81.9469 39.9482L82.3962 40.3987V42.795L81.9469 43.2454V39.9482Z" fill="white"/>
<path d="M92.6687 42.7949H82.3962L81.9469 43.2453H92.4817L92.6687 42.7949Z" fill="white"/>
<path d="M93.9285 44.6908V49.5159L94.3789 49.9663V44.5039L93.9285 44.6908Z" fill="white"/>
<path d="M92.4331 48.0193L91.9827 47.57H82.3964L82.5833 48.0193H92.4331Z" fill="white"/>
<path d="M81.0867 49.5159L82.5832 48.0193L82.3963 47.57L80 49.9663L81.0867 49.5159Z" fill="white"/>
<path d="M91.9825 45.1913L92.433 44.7409V48.0195L91.9825 47.5702V45.1913Z" fill="white"/>
<path d="M80.4505 44.7409L80 45.1913H91.9826L92.4331 44.7409H80.4505Z" fill="white"/>
<path d="M80.4505 39.8992L80 39.7123V45.191L80.4505 44.7405V39.8992Z" fill="white"/>
<rect x="28.5" y="24.5" width="39" height="39" rx="7.5" fill="url(#paint0_radial_38_1194)" stroke="url(#paint1_linear_38_1194)"/>
<g filter="url(#filter0_f_38_1194)">
<path d="M47.233 47.9996L45.6161 49.6155L39.6128 55.6189H36.92L44.5402 47.9996L36.9221 40.3814H39.6149L47.233 47.9996Z" fill="#1C39BA"/>
<path d="M44.4357 55.6189L52.0548 47.9996L44.4367 40.3814H58.5939L56.6899 42.2855H49.0335L54.7476 47.9996L53.1317 49.6155L49.0324 53.7148H56.692L58.596 55.6189H44.4357Z" fill="#1C39BA"/>
<path d="M59.5153 40L58.5938 40.3814L56.6898 42.2855L56.8484 42.6669L59.5153 40Z" fill="#1C39BA"/>
<path d="M43.5166 40L44.437 40.3814H58.5942L59.5156 40H43.5166Z" fill="#1C39BA"/>
<path d="M43.5166 40L44.437 40.3814L52.0551 47.9996H51.5161L43.5166 40Z" fill="#1C39BA"/>
<path d="M55.2874 47.9995H54.7474L49.0333 42.2854L49.9548 42.6668L55.2874 47.9995Z" fill="#1C39BA"/>
<path d="M56.8483 42.6668L56.6898 42.2854H49.0333L49.9548 42.6668H56.8483Z" fill="#1C39BA"/>
<path d="M55.288 47.999H54.748L49.0328 53.7142L49.9532 53.3328L55.288 47.999Z" fill="#1C39BA"/>
<path d="M49.9532 53.3331L49.0328 53.7145H56.6924L56.8499 53.3331H49.9532Z" fill="#1C39BA"/>
<path d="M56.8497 53.3331L56.6921 53.7145L58.5961 55.6186L59.5165 56L56.8497 53.3331Z" fill="#1C39BA"/>
<path d="M59.5165 55.9999L58.5961 55.6185H44.4358L43.5154 55.9999H59.5165Z" fill="#1C39BA"/>
<path d="M43.5154 55.9997L44.4358 55.6183L52.0549 47.999H51.5159L43.5154 55.9997Z" fill="#1C39BA"/>
<path d="M47.7722 47.999H47.2332L39.613 55.6183L39.7706 55.9997L47.7722 47.999Z" fill="#1C39BA"/>
<path d="M44.5406 47.999H44.0006L36 55.9997L36.9204 55.6183L44.5406 47.999Z" fill="#1C39BA"/>
<path d="M39.6132 55.6185L39.7707 55.9999H36L36.9204 55.6185H39.6132Z" fill="#1C39BA"/>
<path d="M39.7729 40L39.6154 40.3814L47.2334 47.9996H47.7724L39.7729 40Z" fill="#1C39BA"/>
<path d="M39.7727 40H36.001L36.9224 40.3814H39.6152L39.7727 40Z" fill="#1C39BA"/>
<path d="M36.9224 40.3814L36.001 40L44.0005 47.9996H44.5405L36.9224 40.3814Z" fill="#1C39BA"/>
</g>
<g filter="url(#filter1_f_38_1194)">
<path d="M47.233 43.9996L45.6161 45.6155L39.6128 51.6189H36.92L44.5402 43.9996L36.9221 36.3814H39.6149L47.233 43.9996Z" fill="white"/>
<path d="M44.4357 51.6189L52.0548 43.9996L44.4367 36.3814H58.5939L56.6899 38.2855H49.0335L54.7476 43.9996L53.1317 45.6155L49.0324 49.7148H56.692L58.596 51.6189H44.4357Z" fill="white"/>
<path d="M59.5153 36L58.5938 36.3814L56.6898 38.2855L56.8484 38.6669L59.5153 36Z" fill="white"/>
<path d="M43.5166 36L44.437 36.3814H58.5942L59.5156 36H43.5166Z" fill="white"/>
<path d="M43.5166 36L44.437 36.3814L52.0551 43.9996H51.5161L43.5166 36Z" fill="white"/>
<path d="M55.2874 43.9995H54.7474L49.0333 38.2854L49.9548 38.6668L55.2874 43.9995Z" fill="white"/>
<path d="M56.8483 38.6668L56.6898 38.2854H49.0333L49.9548 38.6668H56.8483Z" fill="white"/>
<path d="M55.288 43.999H54.748L49.0328 49.7142L49.9532 49.3328L55.288 43.999Z" fill="white"/>
<path d="M49.9532 49.3331L49.0328 49.7145H56.6924L56.8499 49.3331H49.9532Z" fill="white"/>
<path d="M56.8497 49.3331L56.6921 49.7145L58.5961 51.6186L59.5165 52L56.8497 49.3331Z" fill="white"/>
<path d="M59.5165 51.9999L58.5961 51.6185H44.4358L43.5154 51.9999H59.5165Z" fill="white"/>
<path d="M43.5154 51.9997L44.4358 51.6183L52.0549 43.999H51.5159L43.5154 51.9997Z" fill="white"/>
<path d="M47.7722 43.999H47.2332L39.613 51.6183L39.7706 51.9997L47.7722 43.999Z" fill="white"/>
<path d="M44.5406 43.999H44.0006L36 51.9997L36.9204 51.6183L44.5406 43.999Z" fill="white"/>
<path d="M39.6132 51.6185L39.7707 51.9999H36L36.9204 51.6185H39.6132Z" fill="white"/>
<path d="M39.7729 36L39.6154 36.3814L47.2334 43.9996H47.7724L39.7729 36Z" fill="white"/>
<path d="M39.7727 36H36.001L36.9224 36.3814H39.6152L39.7727 36Z" fill="white"/>
<path d="M36.9224 36.3814L36.001 36L44.0005 43.9996H44.5405L36.9224 36.3814Z" fill="white"/>
</g>
<path d="M47.233 43.9996L45.6161 45.6155L39.6128 51.6189H36.92L44.5402 43.9996L36.9221 36.3814H39.6149L47.233 43.9996Z" fill="#FEFDFF"/>
<path d="M44.4357 51.6189L52.0548 43.9996L44.4367 36.3814H58.5939L56.6899 38.2855H49.0335L54.7476 43.9996L53.1317 45.6155L49.0324 49.7148H56.692L58.596 51.6189H44.4357Z" fill="#FEFDFF"/>
<path d="M59.5153 36L58.5938 36.3814L56.6898 38.2855L56.8484 38.6669L59.5153 36Z" fill="#FEFDFF"/>
<path d="M43.5166 36L44.437 36.3814H58.5942L59.5156 36H43.5166Z" fill="#FEFDFF"/>
<path d="M43.5166 36L44.437 36.3814L52.0551 43.9996H51.5161L43.5166 36Z" fill="#FEFDFF"/>
<path d="M55.2874 43.9995H54.7474L49.0333 38.2854L49.9548 38.6668L55.2874 43.9995Z" fill="#FEFDFF"/>
<path d="M56.8483 38.6668L56.6898 38.2854H49.0333L49.9548 38.6668H56.8483Z" fill="#FEFDFF"/>
<path d="M55.288 43.999H54.748L49.0328 49.7142L49.9532 49.3328L55.288 43.999Z" fill="#FEFDFF"/>
<path d="M49.9532 49.3331L49.0328 49.7145H56.6924L56.8499 49.3331H49.9532Z" fill="#FEFDFF"/>
<path d="M56.8497 49.3331L56.6921 49.7145L58.5961 51.6186L59.5165 52L56.8497 49.3331Z" fill="#FEFDFF"/>
<path d="M59.5165 51.9999L58.5961 51.6185H44.4358L43.5154 51.9999H59.5165Z" fill="#FEFDFF"/>
<path d="M43.5154 51.9997L44.4358 51.6183L52.0549 43.999H51.5159L43.5154 51.9997Z" fill="#FEFDFF"/>
<path d="M47.7722 43.999H47.2332L39.613 51.6183L39.7706 51.9997L47.7722 43.999Z" fill="#FEFDFF"/>
<path d="M44.5406 43.999H44.0006L36 51.9997L36.9204 51.6183L44.5406 43.999Z" fill="#FEFDFF"/>
<path d="M39.6132 51.6185L39.7707 51.9999H36L36.9204 51.6185H39.6132Z" fill="#FEFDFF"/>
<path d="M39.7729 36L39.6154 36.3814L47.2334 43.9996H47.7724L39.7729 36Z" fill="#FEFDFF"/>
<path d="M39.7727 36H36.001L36.9224 36.3814H39.6152L39.7727 36Z" fill="#FEFDFF"/>
<path d="M36.9224 36.3814L36.001 36L44.0005 43.9996H44.5405L36.9224 36.3814Z" fill="#FEFDFF"/>
<defs>
<filter id="filter0_f_38_1194" x="16" y="20" width="63.5165" height="56" filterUnits="userSpaceOnUse" color-interpolation-filters="sRGB">
<feFlood flood-opacity="0" result="BackgroundImageFix"/>
<feBlend mode="normal" in="SourceGraphic" in2="BackgroundImageFix" result="shape"/>
<feGaussianBlur stdDeviation="10" result="effect1_foregroundBlur_38_1194"/>
</filter>
<filter id="filter1_f_38_1194" x="0" y="0" width="95.5165" height="88" filterUnits="userSpaceOnUse" color-interpolation-filters="sRGB">
<feFlood flood-opacity="0" result="BackgroundImageFix"/>
<feBlend mode="normal" in="SourceGraphic" in2="BackgroundImageFix" result="shape"/>
<feGaussianBlur stdDeviation="18" result="effect1_foregroundBlur_38_1194"/>
</filter>
<radialGradient id="paint0_radial_38_1194" cx="0" cy="0" r="1" gradientUnits="userSpaceOnUse" gradientTransform="translate(48 64) rotate(-90) scale(40 32.4332)">
<stop stop-color="#778CE8"/>
<stop offset="1" stop-color="#1C39BA"/>
</radialGradient>
<linearGradient id="paint1_linear_38_1194" x1="28" y1="64" x2="69.7787" y2="62.0469" gradientUnits="userSpaceOnUse">
<stop stop-color="white" stop-opacity="0"/>
<stop offset="1" stop-color="white" stop-opacity="0.4"/>
</linearGradient>
</defs>
</svg>
